<svg width="22" height="22" viewBox="0 0 22 22" fill="none" xmlns="http://www.w3.org/2000/svg">
<path d="M8.293 12.2963L2 18.5893V14.0133C2 13.7481 1.89464 13.4938 1.70711 13.3062C1.51957 13.1187 1.26522 13.0133 1 13.0133C0.734784 13.0133 0.48043 13.1187 0.292893 13.3062C0.105357 13.4938 0 13.7481 0 14.0133V21.0033C0 21.2686 0.105357 21.5229 0.292893 21.7104C0.48043 21.898 0.734784 22.0033 1 22.0033H7.97C8.23522 22.0033 8.48957 21.898 8.67711 21.7104C8.86464 21.5229 8.97 21.2686 8.97 21.0033C8.97 20.7381 8.86464 20.4838 8.67711 20.2962C8.48957 20.1087 8.23522 20.0033 7.97 20.0033H3.414L9.707 13.7103C9.88916 13.5217 9.98995 13.2691 9.98767 13.0069C9.9854 12.7447 9.88023 12.4939 9.69482 12.3085C9.50941 12.1231 9.2586 12.0179 8.9964 12.0157C8.7342 12.0134 8.4816 12.1142 8.293 12.2963Z" fill="white"/>
<path d="M20.9967 0H13.9967C13.7314 0 13.4771 0.105357 13.2896 0.292893C13.102 0.48043 12.9967 0.734784 12.9967 1C12.9967 1.26522 13.102 1.51957 13.2896 1.70711C13.4771 1.89464 13.7314 2 13.9967 2H18.5827L12.2897 8.293C12.1942 8.38525 12.118 8.49559 12.0656 8.6176C12.0132 8.7396 11.9856 8.87082 11.9844 9.0036C11.9833 9.13638 12.0086 9.26806 12.0588 9.39095C12.1091 9.51385 12.1834 9.6255 12.2773 9.71939C12.3712 9.81329 12.4828 9.88754 12.6057 9.93782C12.7286 9.9881 12.8603 10.0134 12.9931 10.0123C13.1258 10.0111 13.2571 9.98351 13.3791 9.9311C13.5011 9.87869 13.6114 9.80251 13.7037 9.707L19.9967 3.414V7.99C19.9967 8.25522 20.102 8.50957 20.2896 8.69711C20.4771 8.88464 20.7314 8.99 20.9967 8.99C21.2619 8.99 21.5162 8.88464 21.7038 8.69711C21.8913 8.50957 21.9967 8.25522 21.9967 7.99V1C21.9967 0.734784 21.8913 0.48043 21.7038 0.292893C21.5162 0.105357 21.2619 0 20.9967 0Z" fill="white"/>
</svg>
