<svg width="140" height="20" viewBox="0 0 140 20" fill="none" xmlns="http://www.w3.org/2000/svg">
<path d="M42.4136 10.629C42.6699 10.1071 42.8834 9.68964 43.0755 9.27214C44.4206 6.49576 45.7657 3.74026 47.0895 0.963887C47.2389 0.650762 47.4097 0.546388 47.7513 0.567263C49.3313 0.588138 50.9112 0.588138 52.5126 0.567263C52.8115 0.567263 52.9182 0.650762 52.9182 0.963887C52.9182 6.85064 52.9182 12.7583 52.9182 18.645C52.9182 18.812 52.9396 18.979 52.6834 18.979C51.381 18.979 50.0999 18.979 48.7548 18.979C48.7548 15.2215 48.7548 11.464 48.7548 7.72739C48.7335 7.72739 48.6908 7.70652 48.6694 7.70652C48.6054 7.81089 48.5413 7.91527 48.4773 8.04052C46.9614 11.0465 45.4668 14.0525 43.9722 17.0585C43.8228 17.3717 43.6306 17.5178 43.2463 17.4969C42.6912 17.476 42.1361 17.476 41.581 17.4969C41.2821 17.4969 41.1326 17.4134 40.9831 17.142C39.4459 14.0734 37.9086 11.0256 36.3714 7.95702C36.3073 7.83177 36.2433 7.70651 36.1792 7.58126C36.1579 7.58126 36.1152 7.58126 36.0938 7.58126C36.0938 7.68564 36.0938 7.79001 36.0938 7.89439C36.0938 11.4431 36.0938 14.9919 36.0938 18.5407C36.0938 18.9582 36.0938 18.9582 35.6455 18.9582C34.3644 18.9582 33.1047 18.9582 31.781 18.9582C31.781 18.8329 31.7596 18.7077 31.7596 18.6033C31.7596 12.7165 31.7596 6.80889 31.7596 0.922135C31.7596 0.609009 31.845 0.546387 32.1653 0.546387C33.852 0.567262 35.5387 0.567262 37.2254 0.546387C37.5457 0.546387 37.6951 0.650759 37.8446 0.922135C39.2964 4.01164 40.7696 7.10114 42.2215 10.1906C42.2428 10.3159 42.3069 10.4411 42.4136 10.629Z" fill="black"/>
<path d="M55.2028 18.9583C55.2455 18.8122 55.2882 18.7078 55.3309 18.6034C57.9571 12.6958 60.5832 6.80906 63.188 0.901428C63.2948 0.671803 63.4229 0.567428 63.6791 0.588303C64.8534 0.609178 66.0277 0.609179 67.2019 0.609179C67.4368 0.609179 67.5649 0.692678 67.6503 0.901428C70.2765 6.82993 72.8813 12.7584 75.5074 18.6869C75.5501 18.7704 75.5714 18.8748 75.6141 18.9792C75.5074 18.9792 75.422 19.0001 75.3366 19.0001C74.0342 19.0001 72.7531 19.0001 71.4508 19.0001C71.1945 19.0001 71.0664 18.9166 70.981 18.6869C70.5113 17.5806 70.0202 16.4951 69.5505 15.4096C69.4224 15.1173 69.2516 14.9921 68.91 14.9921C66.5828 14.9921 64.2342 14.9921 61.907 14.9921C61.5653 14.9921 61.3732 15.1173 61.2451 15.4096C60.7754 16.4951 60.2843 17.5806 59.8146 18.6661C59.7078 18.8957 59.5797 19.0001 59.3235 19.0001C58.0425 18.9792 56.7828 18.9792 55.5017 18.9792C55.4377 18.9792 55.3309 18.9583 55.2028 18.9583ZM67.7784 11.4016C67.0098 9.62719 66.2839 7.91544 65.5366 6.20369C65.4939 6.20369 65.4512 6.20369 65.4085 6.20369C64.6612 7.91544 63.8926 9.64807 63.124 11.4016C64.7039 11.4016 66.1985 11.4016 67.7784 11.4016Z" fill="black"/>
<path d="M105.591 16.0357C104.523 16.0357 103.498 16.0357 102.431 16.0357C102.431 15.9104 102.431 15.7852 102.431 15.6599C102.431 14.1569 102.431 12.6539 102.431 11.1509C102.431 10.7334 102.431 10.7334 102.004 10.7334C100.915 10.7334 99.8472 10.7334 98.7583 10.7334C98.0537 10.7334 97.7121 10.3994 97.7121 9.71055C97.7121 8.1658 97.7121 6.64192 97.7121 5.09717C97.7121 4.4083 98.0537 4.0743 98.7583 4.0743C99.8685 4.0743 100.979 4.0743 102.068 4.0743C102.26 4.0743 102.431 4.09517 102.473 3.84467C102.516 3.55242 102.431 3.46892 102.089 3.46892C100.637 3.46892 99.164 3.46892 97.7121 3.46892C97.2637 3.46892 97.2637 3.46892 97.2637 3.03055C97.2637 2.4878 97.2851 1.94505 97.2637 1.4023C97.2424 1.11005 97.3491 1.02654 97.6481 1.02654C99.0999 1.04742 100.573 1.02654 102.025 1.02654C102.303 1.02654 102.516 1.02655 102.495 0.650796C102.495 0.588171 102.644 0.462922 102.73 0.462922C103.605 0.442047 104.502 0.442047 105.377 0.462922C105.462 0.462922 105.612 0.609042 105.612 0.692542C105.612 0.984792 105.761 1.02654 106.018 1.02654C107.491 1.02654 108.964 1.02654 110.437 1.02654C110.757 1.02654 110.864 1.11004 110.843 1.42317C110.821 1.96592 110.821 2.50867 110.843 3.05142C110.864 3.36455 110.779 3.4898 110.416 3.46892C108.943 3.44805 107.469 3.46892 105.996 3.44805C105.719 3.44805 105.569 3.51067 105.612 3.82379C105.633 4.0743 105.804 4.0743 105.996 4.0743C107.064 4.0743 108.11 4.0743 109.177 4.0743C109.263 4.0743 109.348 4.0743 109.455 4.0743C110.031 4.11605 110.373 4.45005 110.373 5.01367C110.373 6.60018 110.373 8.20755 110.373 9.79405C110.373 10.3786 110.01 10.7334 109.412 10.7334C108.302 10.7334 107.17 10.7334 106.06 10.7334C105.655 10.7334 105.612 10.7752 105.612 11.1718C105.612 12.6748 105.612 14.1569 105.612 15.6599C105.591 15.7643 105.591 15.8896 105.591 16.0357ZM105.591 7.39342C105.591 7.60217 105.591 7.81092 105.591 8.01968C105.591 8.22843 105.655 8.3328 105.868 8.3328C106.252 8.3328 106.637 8.3328 107 8.3328C107.213 8.3328 107.277 8.22843 107.277 8.06143C107.277 7.64393 107.277 7.22643 107.277 6.80893C107.277 6.62105 107.213 6.51668 107 6.51668C106.615 6.51668 106.231 6.51668 105.868 6.4958C105.676 6.4958 105.569 6.5793 105.591 6.76717C105.591 6.97592 105.591 7.18467 105.591 7.39342ZM102.431 7.4143C102.431 7.20555 102.431 6.9968 102.431 6.78805C102.452 6.5793 102.367 6.47493 102.153 6.4958C101.79 6.4958 101.448 6.4958 101.086 6.47492C100.872 6.47492 100.787 6.55842 100.787 6.76717C100.787 7.03855 100.787 7.30992 100.787 7.5813C100.787 8.37455 100.68 8.29105 101.513 8.31192C102.431 8.3328 102.431 8.3328 102.431 7.4143Z" fill="black"/>
<path d="M118.871 11.2554C118.743 11.819 118.636 12.3826 118.508 12.9254C118.102 14.8667 117.696 16.7873 117.312 18.7286C117.269 18.8956 117.248 18.9791 117.056 18.9791C115.988 18.9791 114.921 18.9791 113.832 18.9791C113.811 18.9791 113.768 18.9583 113.704 18.9374C113.832 18.2903 113.96 17.6431 114.109 16.996C114.536 15.0337 114.942 13.0715 115.369 11.1092C115.433 10.8379 115.54 10.7335 115.839 10.7335C116.757 10.7544 117.696 10.7335 118.614 10.7544C118.913 10.7544 118.999 10.6709 118.999 10.3786C118.999 7.28912 118.999 4.17874 118.999 1.08923C118.999 0.671734 118.999 0.671733 119.447 0.650858C123.184 0.462983 126.941 0.275105 130.678 0.0872298C131.169 0.0663548 131.66 0.045481 132.151 0.00373098C132.386 -0.017144 132.492 0.0454797 132.492 0.29598C132.471 0.943106 132.471 1.6111 132.492 2.25823C132.492 2.50873 132.407 2.59223 132.151 2.61311C129.012 2.75923 125.895 2.92624 122.757 3.07236C122.244 3.09324 122.244 3.09323 122.244 3.61511C122.244 8.29111 122.244 12.9462 122.244 17.6222C122.244 18.5825 121.817 19 120.835 19C120.066 19 119.319 19 118.55 19C118.294 19 118.187 18.9374 118.209 18.666C118.23 18.1232 118.23 17.5805 118.209 17.0377C118.209 16.7455 118.294 16.5785 118.614 16.5994C118.892 16.6202 118.999 16.4741 118.999 16.2236C118.999 14.6162 119.02 13.0089 119.02 11.4015C119.02 11.3597 119.02 11.318 118.999 11.2762C118.935 11.2762 118.892 11.2554 118.871 11.2554Z" fill="black"/>
<path d="M129.333 6.39148C129.567 7.26824 129.802 8.10323 130.016 8.93823C130.037 8.93823 130.08 8.93823 130.101 8.95911C130.251 8.64598 130.421 8.33286 130.571 7.99886C130.678 7.72748 130.87 7.62311 131.169 7.62311C131.937 7.64398 132.706 7.62311 133.475 7.62311C133.581 7.62311 133.667 7.64399 133.816 7.64399C133.774 7.76924 133.752 7.87361 133.709 7.97799C133.154 9.25136 132.621 10.5039 132.065 11.7564C131.852 12.2365 131.788 12.3409 131.276 12.2365C131.019 12.1739 130.934 12.2991 131.019 12.5914C131.446 14.1779 131.852 15.7644 132.279 17.3717C132.407 17.8936 132.557 18.4155 132.706 18.9791C131.681 18.9791 130.699 18.9791 129.696 18.9791C129.461 18.9791 129.439 18.8121 129.418 18.6451C128.863 16.5576 128.329 14.491 127.774 12.4035C127.347 10.817 126.941 9.23049 126.514 7.66486C126.493 7.56049 126.45 7.45611 126.408 7.35174C126.365 7.35174 126.322 7.35174 126.301 7.35174C126.301 7.58136 126.301 7.81098 126.301 8.04061C126.322 10.6917 126.322 13.3429 126.343 15.994C126.343 16.1192 126.322 16.2445 126.386 16.3489C126.45 16.4532 126.578 16.5785 126.706 16.5994C126.941 16.6202 127.176 16.5994 127.411 16.5785C127.625 16.5576 127.753 16.6202 127.753 16.8707C127.753 17.4761 127.753 18.0815 127.753 18.666C127.753 18.8956 127.646 18.9791 127.411 18.9791C126.365 18.9791 125.34 18.9791 124.294 18.9791C123.653 18.9791 123.184 18.5407 123.141 17.9145C123.141 17.831 123.141 17.7475 123.141 17.6431C123.141 13.3637 123.141 9.06348 123.141 4.78411C123.141 4.67973 123.141 4.57536 123.141 4.42923C126.045 4.19961 128.948 3.99086 131.873 3.76123C131.873 4.53361 131.873 5.2851 131.852 6.01573C131.852 6.07836 131.681 6.18274 131.574 6.20361C130.977 6.26624 130.4 6.30798 129.802 6.34973C129.61 6.34973 129.482 6.37061 129.333 6.39148Z" fill="black"/>
<path d="M111.184 16.6202C111.184 17.4134 111.184 18.1858 111.184 18.979C111.056 18.979 110.95 18.979 110.821 18.979C106.316 18.979 101.833 18.979 97.3278 18.979C96.3457 18.979 95.4703 18.7912 94.7657 18.0605C94.6376 17.9144 94.5095 17.9144 94.3814 18.0814C93.7195 18.8329 92.8655 19.0417 91.8834 18.979C91.6271 18.9582 91.5417 18.8747 91.5417 18.6242C91.5631 18.0605 91.5631 17.4969 91.5417 16.9124C91.5417 16.6828 91.6058 16.5784 91.8407 16.5158C92.5452 16.3279 92.8868 15.8478 92.9295 15.1589C92.9722 14.4909 92.9509 13.802 92.9509 13.134C92.9509 11.5475 92.9509 9.96102 92.9509 8.3954C92.9509 7.99877 92.9082 7.95702 92.5239 7.95702C92.3104 7.95702 92.0755 7.95702 91.862 7.95702C91.6272 7.95702 91.5417 7.85264 91.5417 7.64389C91.5417 7.10114 91.5417 6.57926 91.5417 6.03651C91.5417 5.82776 91.6485 5.72339 91.862 5.72339C92.9936 5.72339 94.1465 5.70251 95.2781 5.72339C95.7905 5.72339 96.1322 6.12001 96.1535 6.66277C96.1749 7.37252 96.1749 8.08227 96.1749 8.79202C96.1749 10.7543 96.2176 12.6956 96.1322 14.6579C96.0895 15.9104 96.8581 16.3488 97.8189 16.5784C98.0964 16.641 98.4167 16.641 98.7156 16.641C102.73 16.641 106.743 16.641 110.779 16.641C110.907 16.6202 111.035 16.6202 111.184 16.6202Z" fill="black"/>
<path d="M78.3683 18.9791C78.3683 18.833 78.3683 18.7287 78.3683 18.6243C78.3683 12.7375 78.3683 6.85076 78.3683 0.984883C78.3683 0.630008 78.4751 0.567383 78.7954 0.567383C80.0124 0.588258 81.2294 0.588258 82.4463 0.567383C82.7026 0.567383 82.8093 0.630003 82.8093 0.901378C82.8093 6.80901 82.8093 12.7375 82.8093 18.6451C82.8093 18.8956 82.7453 18.9791 82.4677 18.9791C81.1226 18.9791 79.7561 18.9791 78.3683 18.9791Z" fill="black"/>
<path d="M27.1479 18.8978C25.7387 18.8978 24.3509 18.8978 22.9418 18.8978C22.9418 12.7815 22.9418 6.66509 22.9418 0.527832C24.3296 0.527832 25.7174 0.527832 27.1479 0.527832C27.1479 6.64421 27.1479 12.7606 27.1479 18.8978Z" fill="black"/>
<path d="M110.971 15.8895C110.629 15.8895 110.309 15.8895 110.01 15.8895C109.391 15.8895 108.772 15.8895 108.131 15.8895C108.025 15.8895 107.832 15.806 107.79 15.7225C107.128 14.2821 106.509 12.8209 105.868 11.3805C105.868 11.3596 105.868 11.3388 105.868 11.2761C105.954 11.2553 106.06 11.2344 106.167 11.2344C107 11.2344 107.832 11.2344 108.665 11.2344C108.772 11.2344 108.964 11.3179 109.007 11.4014C109.669 12.8418 110.288 14.2613 110.928 15.7016C110.95 15.7225 110.95 15.7643 110.971 15.8895Z" fill="black"/>
<path d="M96.9648 15.806C97.0075 15.6599 97.0502 15.5555 97.0929 15.4511C97.7335 14.136 98.374 12.8 98.9932 11.4849C99.0786 11.2761 99.2067 11.1926 99.4415 11.1926C100.21 11.2135 100.979 11.1926 101.747 11.1926C102.089 11.1926 102.132 11.2552 102.004 11.5475C101.427 12.9044 100.851 14.2404 100.274 15.5973C100.232 15.7016 100.082 15.8269 99.9753 15.8269C99.0359 15.8478 98.0751 15.8269 97.1356 15.8269C97.1143 15.8478 97.0716 15.8269 96.9648 15.806Z" fill="black"/>
<path d="M118.828 4.24127C117.654 4.24127 116.586 4.24127 115.497 4.24127C115.39 4.24127 115.241 4.1369 115.198 4.0534C114.622 2.8844 114.067 1.69452 113.512 0.504647C113.49 0.442022 113.469 0.35852 113.448 0.27502C113.576 0.27502 113.661 0.25415 113.768 0.25415C114.729 0.25415 115.711 0.25415 116.672 0.25415C116.864 0.25415 116.992 0.295895 117.077 0.483771C117.611 1.65277 118.166 2.8009 118.7 3.94903C118.764 4.03253 118.785 4.11602 118.828 4.24127Z" fill="black"/>
<path d="M113.448 5.28516C114.344 5.28516 115.22 5.34779 116.052 5.26429C116.757 5.20166 117.12 5.43129 117.376 6.09929C117.76 7.08041 118.251 7.99891 118.7 8.95916C118.743 9.06354 118.785 9.14704 118.828 9.29316C118.7 9.31404 118.636 9.33492 118.55 9.33492C117.568 9.33492 116.565 9.33492 115.583 9.33492C115.455 9.33492 115.262 9.25141 115.22 9.14704C114.643 7.95716 114.067 6.74641 113.49 5.53566C113.49 5.45216 113.469 5.38953 113.448 5.28516Z" fill="black"/>
<path d="M96.5165 3.99077C96.1962 3.99077 95.9187 3.99077 95.6411 3.99077C94.8084 3.99077 93.9971 3.99077 93.1644 3.99077C93.0577 3.99077 92.8655 3.90726 92.8442 3.82376C92.5452 2.78001 92.289 1.71539 92.0115 0.671638C92.0115 0.650763 92.0115 0.629888 92.0328 0.567263C92.1182 0.567263 92.225 0.546387 92.3317 0.546387C93.3139 0.546387 94.3174 0.546387 95.2995 0.546387C95.5557 0.546387 95.6411 0.629887 95.7052 0.859512C95.94 1.79889 96.1962 2.73826 96.4311 3.67764C96.4738 3.74026 96.4951 3.82376 96.5165 3.99077Z" fill="black"/>
<path fill-rule="evenodd" clip-rule="evenodd" d="M0 13.363H9.02016L11.666 19.0001H0V13.363Z" fill="url(#paint0_linear_433_4899)"/>
<path fill-rule="evenodd" clip-rule="evenodd" d="M18.8935 13.7075V19H13.4807L18.8935 13.7075Z" fill="#040000"/>
<path fill-rule="evenodd" clip-rule="evenodd" d="M18.8935 6.16488H9.87332L7.22751 0.527832H18.8935V6.16488Z" fill="url(#paint1_linear_433_4899)"/>
<path fill-rule="evenodd" clip-rule="evenodd" d="M18.8935 3.71118L9.02017 13.3629L11.666 19L18.8935 11.9435V3.71118Z" fill="url(#paint2_linear_433_4899)"/>
<path fill-rule="evenodd" clip-rule="evenodd" d="M0 15.8166L9.87332 6.16488L7.22751 0.527832L0 7.58429V15.8166Z" fill="url(#paint3_linear_433_4899)"/>
<path fill-rule="evenodd" clip-rule="evenodd" d="M0 5.82028V0.527832H5.41285L0 5.82028Z" fill="#040000"/>
<path d="M136.924 5.76638V6.09695C136.924 6.19069 136.94 6.26794 136.973 6.32863C137.007 6.39009 137.054 6.43584 137.113 6.46586C137.172 6.49659 137.241 6.51192 137.318 6.51192C137.397 6.51192 137.465 6.49659 137.523 6.46586C137.582 6.43584 137.628 6.39009 137.66 6.32863C137.693 6.26717 137.71 6.18921 137.71 6.09476V5.76638H136.924Z" fill="#D4291D"/>
<path d="M136.996 9.69231V10.0229C136.996 10.1158 137.009 10.1931 137.036 10.2546C137.062 10.316 137.101 10.3618 137.153 10.3917C137.205 10.4225 137.27 10.4378 137.347 10.4378C137.425 10.4378 137.491 10.4225 137.545 10.3917C137.599 10.3618 137.639 10.3156 137.667 10.2535C137.695 10.1919 137.71 10.1144 137.71 10.0206V9.69231H136.996Z" fill="#D4291D"/>
<path fill-rule="evenodd" clip-rule="evenodd" d="M139 0H134.951V11.875H139V0ZM137.439 2.20704C137.532 2.19802 137.604 2.15943 137.655 2.0912C137.707 2.02298 137.733 1.9304 137.733 1.81346C137.733 1.73396 137.721 1.66689 137.698 1.6122C137.676 1.55743 137.645 1.51543 137.605 1.48624C137.565 1.4577 137.52 1.44346 137.469 1.44346C137.427 1.44198 137.39 1.45062 137.359 1.46936C137.327 1.48882 137.3 1.51543 137.277 1.54919C137.255 1.58295 137.235 1.62192 137.218 1.66612C137.202 1.71038 137.189 1.75761 137.177 1.80786L137.126 2.01473C137.103 2.11523 137.073 2.20743 137.034 2.29138C136.996 2.37532 136.949 2.44806 136.893 2.50952C136.837 2.57098 136.771 2.61859 136.695 2.65235C136.619 2.68682 136.532 2.70447 136.434 2.70518C136.29 2.70447 136.165 2.66846 136.059 2.59727C135.954 2.52679 135.872 2.4248 135.814 2.29138C135.757 2.15866 135.728 1.99862 135.728 1.81121C135.728 1.62527 135.757 1.46337 135.815 1.32544C135.874 1.18821 135.96 1.081 136.074 1.00382C136.189 0.927348 136.331 0.88721 136.501 0.883474V1.35462C136.422 1.3599 136.356 1.382 136.303 1.42098C136.251 1.46073 136.211 1.51356 136.184 1.57953C136.158 1.64628 136.145 1.72159 136.145 1.8056C136.145 1.88807 136.158 1.95965 136.182 2.0204C136.207 2.08186 136.241 2.12947 136.285 2.16317C136.328 2.19693 136.378 2.21381 136.435 2.21381C136.488 2.21381 136.533 2.19841 136.569 2.16768C136.605 2.13772 136.635 2.09346 136.661 2.03496C136.686 1.97723 136.709 1.90643 136.73 1.82248L136.794 1.57167C136.842 1.37749 136.918 1.22422 137.021 1.11174C137.123 0.999312 137.262 0.943454 137.436 0.944227C137.578 0.943454 137.703 0.980564 137.81 1.05556C137.916 1.13126 137.999 1.23505 138.059 1.36699C138.119 1.49894 138.149 1.64892 138.149 1.81681C138.149 1.98774 138.119 2.13695 138.059 2.26438C137.999 2.39259 137.916 2.49232 137.81 2.56351C137.703 2.63477 137.58 2.67149 137.439 2.67374V2.20704ZM138.117 4.42355V4.91049H136.587C136.415 4.91049 136.265 4.87041 136.136 4.7902C136.007 4.7107 135.907 4.59937 135.835 4.45622C135.763 4.313 135.728 4.1462 135.728 3.95576C135.728 3.7646 135.763 3.59742 135.835 3.45426C135.907 3.31105 136.007 3.19972 136.136 3.12028C136.265 3.04078 136.415 3.00103 136.587 3.00103H138.117V3.48796H136.63C136.54 3.48796 136.46 3.50709 136.39 3.5453C136.321 3.58434 136.266 3.63904 136.226 3.70952C136.186 3.78 136.166 3.86208 136.166 3.95576C136.166 4.05027 136.186 4.13235 136.226 4.20206C136.266 4.27254 136.321 4.32685 136.39 4.36512C136.46 4.4041 136.54 4.42355 136.63 4.42355H138.117ZM138.117 5.27945H135.761V5.76638H136.525V6.17568C136.525 6.3526 136.558 6.50329 136.625 6.62776C136.692 6.75294 136.785 6.84855 136.904 6.91452C137.024 6.98049 137.162 7.01348 137.318 7.01348C137.475 7.01348 137.613 6.98088 137.733 6.91562C137.853 6.85119 137.947 6.75745 138.014 6.63453C138.083 6.51154 138.117 6.36278 138.117 6.18805V5.27945ZM135.761 7.29805H138.117V8.84994H137.706V7.78498H137.145V8.77005H136.734V7.78498H136.172V8.85445H135.761V7.29805ZM138.117 9.20538H135.761V9.69231H136.596V10.0477L135.761 10.484V11.0215L136.676 10.5329L136.682 10.5445L136.686 10.5537C136.746 10.6789 136.832 10.7745 136.944 10.8404C137.056 10.9064 137.191 10.9394 137.347 10.9394C137.503 10.9394 137.638 10.9068 137.753 10.8415C137.869 10.7771 137.958 10.683 138.021 10.5593C138.085 10.4364 138.117 10.2879 138.117 10.114V9.20538Z" fill="#D4291D"/>
<defs>
<linearGradient id="paint0_linear_433_4899" x1="10.1209" y1="17.9455" x2="0.663766" y2="17.7757" gradientUnits="userSpaceOnUse">
<stop stop-color="#66060B"/>
<stop offset="1" stop-color="#B70712"/>
</linearGradient>
<linearGradient id="paint1_linear_433_4899" x1="9.0468" y1="1.67512" x2="18.2955" y2="4.41791" gradientUnits="userSpaceOnUse">
<stop stop-color="#5F050A"/>
<stop offset="1" stop-color="#C40A16"/>
</linearGradient>
<linearGradient id="paint2_linear_433_4899" x1="18.3337" y1="5.08992" x2="12.2099" y2="17.1259" gradientUnits="userSpaceOnUse">
<stop stop-color="#530409"/>
<stop offset="1" stop-color="#A0141A"/>
</linearGradient>
<linearGradient id="paint3_linear_433_4899" x1="6.68515" y1="2.37317" x2="1.34361" y2="14.5984" gradientUnits="userSpaceOnUse">
<stop stop-color="#CC221E"/>
<stop offset="1" stop-color="#700100"/>
</linearGradient>
</defs>
</svg>
